<?xml version="1.0" encoding="UTF-8"?>
<svg id="Capa_2" xmlns="http://www.w3.org/2000/svg" version="1.1" viewBox="0 0 1080 1080">
  <!-- Generator: Adobe Illustrator 30.4.0, SVG Export Plug-In . SVG Version: 2.1.4 Build 226)  -->
  <defs>
    <style>
      .st0 {
        stroke: #4d626a;
      }

      .st0, .st1, .st2, .st3 {
        stroke-miterlimit: 10;
      }

      .st0, .st1, .st3 {
        fill: none;
      }

      .st0, .st3 {
        stroke-width: 2px;
      }

      .st1, .st3 {
        stroke: #dcbfa8;
      }

      .st4 {
        fill: #dcbfa8;
      }

      .st5 {
        fill: #c58079;
      }

      .st2 {
        fill: #4d626a;
        stroke: #1d1d1b;
        stroke-width: .75px;
      }

      .st6, .st7 {
        fill: #506c61;
      }

      .st6, .st8 {
        display: none;
      }

      .st9 {
        fill: #396b50;
      }
    </style>
  </defs>
  <rect class="st6" x="-14" y="-19" width="1108" height="1108"/>
  <g class="st8">
    <rect class="st2" x="1127.62" y="-14.4" width="595.28" height="595.28"/>
    <rect class="st7" x="1128.12" y="609.1" width="595.28" height="595.28"/>
    <rect class="st5" x="1249" y="699" width="40" height="105"/>
    <rect class="st9" x="1294" y="699" width="40" height="105"/>
    <g>
      <path class="st3" d="M1400.9,555.63c1.65-5.1.66-4.92-2.59-5.81-3.25-.88-1.61-6.84-2.99-7.51s-3.24.46-5.88-2.2c-2.64-2.66-4.55-5.36-6.6-2.93-2.04,2.43-3.69-2.13-5.55-2.52-1.86-.39-1.57,2.73-4.82,1.85-3.25-.88-1.7-1.89-4.18-.12s-2.77,1.32-3.75.54-3.82.91-1.36,6.4,1.98,27.17,18.84,31.7c16.86,4.53,9.3,5.6,14.27,3.03,4.98-2.58,2.78.59,4.54.39s2.32-1.04,2.53-2.9c.2-1.87,1.47-.63,2.39-2.26.92-1.63,3.48-4.71,1.95-5.61s-3.2-2.02-2.53-3.4-.39.04-1.57-3.43c-1.18-3.46-2.71-5.22-2.71-5.22Z"/>
      <path class="st3" d="M1388,556.24c-.75-1.12-2.45-4.15-2.82-2.32s-.19,3.71-1.5,2.7-2.47,2.38.3,2.97,4.91-.49,5.33,1.13,5.61,1.47,4.69-2.3c-.92-3.78-4.42-2.61-2.98-4.88,1.44-2.28-.41-4.39-2.61-3.9-2.21.49-3.05,1.3-4.2-1.16-1.15-2.46-3.11-.39-2.22,1.71.89,2.1.65,4.72-1.34,3.92-1.99-.81-3.37,2.07-2.78,2.9s4.76,4.59,2.45,4.67-1.57,8.07,2,5.77c3.57-2.3,6.6-3.95,6.5-1.68-.1,2.27.44,7.55,3.19,3.73,2.75-3.81,1.26-7.57,4.35-5.96,3.1,1.61,5.81-.37,3.97-3.4-1.84-3.03-4.26-6.03-3.16-6.75s-6.08-10.08-7.11-9.73-1.56,3.49-2.97,1.28c-1.42-2.21-4.38-5.38-6.26-3.27s-3.74,4.01-5.48,2.12c-1.73-1.9-5.6-7.11-4.27-1.67,1.33,5.44,3.5,7.81,1.62,8.56s-5.34,3.56-1.42,4.91c3.92,1.35,5.33,2.8,4.51,3.96-.82,1.16-2.59,4.99-1.2,5.67s1.55,5.3,4.29,5.88c2.74.58,5.17-.05,10.23,3.13,5.06,3.18,5.32-1.93,6.84-2.18s6.57.25,7.18-1.73c.61-1.97.89-4.21.89-4.21l.78-6.47"/>
      <path class="st4" d="M1443.64,638.72c-2.72,18.88-1.47,38.95,6.82,56.32,1.32,2.57,3.27,5.93,4.67,8.4,4.77,8.48,8.54,17.49,11.54,26.73,5.08,16.06,10.4,41.69.97,56.74,3.18-5.65,4.05-12.2,4.1-18.55-.11-19.22-5.93-38.1-13.96-55.42-2.6-5.79-6.03-11.45-8.95-17.1-8.31-17.67-9.09-38.28-5.19-57.12h0Z"/>
      <path class="st4" d="M1374.87,570.84c-4.51,26.64,5.23,54.29,22.29,74.74,6.67,8.22,15.03,15.48,23.22,22.19,12.41,10.41,24.78,20.87,36.08,32.53,26.56,27.17,36.15,54.16,11.19,86.62,23.51-33,13.95-58.42-12.49-85.35-11.28-11.51-23.75-21.86-36-32.34-8.23-6.83-16.62-14.2-23.32-22.56-17.02-20.81-26.5-49.11-20.95-75.84h0Z"/>
      <path class="st4" d="M1351.17,706.81c-.43.12-.84-.23-.77-.67.26-1.71.53-5.92-.95-14.19-4.17-23.3-28.99-66.89-2.06-75.14,34.33-10.52,16.91,69.7,51.54,64.72.48-.07.87.42.66.86-4.37,9.34,22.36,29.18,37.85,23.5.43-.16.91.19.85.65-1.24,11.21,48.38,28.32,29.35,80.36-5.02-24.8-26.23-51.4-60.13-43.8-.74.17-1.43-.48-1.25-1.21,3.96-16.33-32.24-41.32-55.09-35.09Z"/>
      <g>
        <polygon class="st4" points="1445.48 658.26 1445.98 646.76 1448.47 658 1445.48 658.26 1445.48 658.26"/>
        <polygon class="st4" points="1428.29 652.87 1435.2 643.96 1430.89 654.38 1428.29 652.87 1428.29 652.87"/>
        <polygon class="st4" points="1417.59 637.48 1428.1 634.81 1418.72 640.25 1417.59 637.48 1417.59 637.48"/>
        <polygon class="st4" points="1417.72 618.37 1427.55 622.98 1416.83 621.23 1417.72 618.37 1417.72 618.37"/>
        <polygon class="st4" points="1428.52 603.24 1433.77 613.24 1426.08 604.97 1428.52 603.24 1428.52 603.24"/>
        <polygon class="st4" points="1450.56 598.81 1447.29 609.81 1447.6 598.34 1450.56 598.81 1450.56 598.81"/>
        <polygon class="st4" points="1465.88 608.79 1457.05 615.48 1463.76 606.66 1465.88 608.79 1465.88 608.79"/>
        <polygon class="st4" points="1472.48 626.6 1461.71 626.27 1472.15 623.62 1472.48 626.6 1472.48 626.6"/>
        <polygon class="st4" points="1467.74 644.99 1459.37 637.82 1469.37 642.47 1467.74 644.99 1467.74 644.99"/>
        <polygon class="st4" points="1453.65 656.62 1450.99 645.49 1456.45 655.54 1453.65 656.62 1453.65 656.62"/>
        <polygon class="st4" points="1435.78 656.83 1439.94 646.18 1438.69 657.55 1435.78 656.83 1435.78 656.83"/>
        <polygon class="st4" points="1421.33 645.46 1430.67 639.61 1423.26 647.77 1421.33 645.46 1421.33 645.46"/>
        <polygon class="st4" points="1416.21 627.11 1426.91 628.44 1416.26 630.11 1416.21 627.11 1416.21 627.11"/>
        <polygon class="st4" points="1422.43 609.24 1430.18 617.16 1420.59 611.61 1422.43 609.24 1422.43 609.24"/>
        <polygon class="st4" points="1437.42 598.97 1439.16 610.31 1434.54 599.81 1437.42 598.97 1437.42 598.97"/>
        <polygon class="st4" points="1459.6 602.88 1453 612.04 1456.96 601.46 1459.6 602.88 1459.6 602.88"/>
        <polygon class="st4" points="1470.8 617.87 1460.38 620.93 1469.57 615.13 1470.8 617.87 1470.8 617.87"/>
        <polygon class="st4" points="1471.3 636.97 1461.32 632.73 1472.08 634.08 1471.3 636.97 1471.3 636.97"/>
        <polygon class="st4" points="1460.83 652.56 1455.56 642.6 1463.27 650.82 1460.83 652.56 1460.83 652.56"/>
      </g>
      <path class="st3" d="M1483.99,701.35c-1.65,5.1-.66,4.92,2.59,5.81,3.25.88,1.61,6.84,2.99,7.51,1.39.68,3.24-.46,5.88,2.2s4.55,5.36,6.6,2.93,3.69,2.13,5.55,2.52c1.86.39,1.57-2.73,4.82-1.85,3.25.88,1.7,1.89,4.18.12,2.48-1.77,2.77-1.32,3.75-.54.98.78,3.82-.91,1.36-6.4-2.47-5.49-1.98-27.17-18.84-31.7-16.86-4.53-9.3-5.6-14.27-3.03-4.98,2.58-2.78-.59-4.54-.39s-2.32,1.04-2.53,2.9-1.47.63-2.39,2.26c-.92,1.63-3.48,4.71-1.95,5.61,1.53.9,3.2,2.02,2.53,3.4s.39-.04,1.57,3.43c1.18,3.46,2.71,5.22,2.71,5.22Z"/>
      <path class="st3" d="M1496.89,700.74c.75,1.12,2.45,4.15,2.82,2.32.36-1.83.19-3.71,1.5-2.7s2.47-2.38-.3-2.97-4.91.49-5.33-1.13c-.42-1.62-5.61-1.47-4.69,2.3.92,3.78,4.42,2.61,2.98,4.88s.41,4.39,2.61,3.9c2.21-.49,3.05-1.3,4.2,1.16s3.11.39,2.22-1.71c-.89-2.1-.65-4.72,1.34-3.92,1.99.81,3.37-2.07,2.78-2.9s-4.76-4.59-2.45-4.67,1.57-8.07-2-5.77c-3.57,2.3-6.6,3.95-6.5,1.68s-.44-7.55-3.19-3.73-1.26,7.57-4.35,5.96c-3.1-1.61-5.81.37-3.97,3.4,1.84,3.03,4.26,6.03,3.16,6.75s6.08,10.08,7.11,9.73,1.56-3.49,2.97-1.28c1.42,2.21,4.38,5.38,6.26,3.27,1.88-2.12,3.74-4.01,5.48-2.12s5.6,7.11,4.27,1.67c-1.33-5.44-3.5-7.81-1.62-8.56s5.34-3.56,1.42-4.91-5.33-2.8-4.51-3.96,2.59-4.99,1.2-5.67-1.55-5.3-4.29-5.88-5.17.05-10.23-3.13c-5.06-3.18-5.32,1.93-6.84,2.18s-6.57-.25-7.18,1.73c-.61,1.97-.89,4.21-.89,4.21l-.78,6.47"/>
      <path class="st4" d="M1444.04,619.63c-.54-20.05-2.5-40.77-10.98-59.17-1.1-1.97-2.4-4.37-3.6-6.27-8.41-14.01-14.18-29.69-16.65-45.85-1.74-12.75-1.99-26.74,4.45-38.29-2.88,5.85-4.04,12.34-4.29,18.77-.67,23.44,7.43,46.54,19.37,66.47.59,1.08,1.79,3.27,2.38,4.35,8.49,18.68,10.01,39.77,9.33,59.98h0Z"/>
      <path class="st4" d="M1510.03,686.14c4.51-26.64-5.23-54.29-22.29-74.74-6.67-8.22-15.03-15.48-23.22-22.19-12.41-10.41-24.78-20.87-36.08-32.53-26.56-27.17-36.15-54.16-11.19-86.62-23.51,32.99-13.95,58.42,12.49,85.35,11.28,11.51,23.75,21.86,36,32.34,8.23,6.83,16.62,14.2,23.32,22.56,17.02,20.81,26.5,49.11,20.95,75.84h0Z"/>
      <path class="st4" d="M1533.72,550.16c.43-.12.84.23.77.67-.26,1.71-.53,5.92.95,14.19,4.17,23.3,28.99,66.89,2.06,75.14-34.33,10.52-16.91-69.7-51.54-64.72-.48.07-.87-.42-.66-.86,4.37-9.34-22.36-29.18-37.85-23.5-.43.16-.91-.19-.85-.65,1.24-11.21-48.38-28.32-29.35-80.36,5.02,24.8,26.23,51.4,60.13,43.8.74-.17,1.43.48,1.25,1.21-3.96,16.33,32.24,41.32,55.09,35.09Z"/>
      <circle class="st1" cx="1444.42" cy="629.18" r="4.04"/>
      <path class="st0" d="M1468.31,785.03s9.18-35.87-46.89-64.47c-56.08-28.6-77.64-77.07-73.15-103.99"/>
      <path class="st0" d="M1416.59,471.95s-9.18,35.87,46.89,64.47c56.08,28.6,77.64,77.07,73.15,103.99"/>
    </g>
  </g>
  <g>
    <g>
      <g>
        <g id="_x3C_Repetición_radial_x3E_">
          <polygon class="st4" points="483.38 674.88 404.15 820.7 434.77 833.55 483.38 674.88"/>
        </g>
        <g id="_x3C_Repetición_radial_x3E_1" data-name="_x3C_Repetición_radial_x3E_">
          <polygon class="st4" points="404.59 595.33 245.45 642.43 258.01 673.16 404.59 595.33"/>
        </g>
        <g id="_x3C_Repetición_radial_x3E_2" data-name="_x3C_Repetición_radial_x3E_">
          <polygon class="st4" points="405.12 483.38 259.3 404.15 246.45 434.77 405.12 483.38"/>
        </g>
        <g id="_x3C_Repetición_radial_x3E_3" data-name="_x3C_Repetición_radial_x3E_">
          <polygon class="st4" points="484.67 404.59 437.57 245.45 406.84 258.01 484.67 404.59"/>
        </g>
        <g id="_x3C_Repetición_radial_x3E_4" data-name="_x3C_Repetición_radial_x3E_">
          <polygon class="st4" points="596.62 405.12 675.85 259.3 645.23 246.45 596.62 405.12"/>
        </g>
        <g id="_x3C_Repetición_radial_x3E_5" data-name="_x3C_Repetición_radial_x3E_">
          <polygon class="st4" points="675.41 484.67 834.55 437.57 821.99 406.84 675.41 484.67"/>
        </g>
        <g id="_x3C_Repetición_radial_x3E_6" data-name="_x3C_Repetición_radial_x3E_">
          <polygon class="st4" points="674.88 596.62 820.7 675.85 833.55 645.23 674.88 596.62"/>
        </g>
        <g id="_x3C_Repetición_radial_x3E_7" data-name="_x3C_Repetición_radial_x3E_">
          <polygon class="st4" points="595.33 675.41 642.43 834.55 673.16 821.99 595.33 675.41"/>
        </g>
      </g>
      <g>
        <g id="_x3C_Repetición_radial_x3E_8" data-name="_x3C_Repetición_radial_x3E_">
          <polygon class="st4" points="485.12 593.98 241.26 793.78 278.17 831.8 485.12 593.98"/>
        </g>
        <g id="_x3C_Repetición_radial_x3E_9" data-name="_x3C_Repetición_radial_x3E_">
          <polygon class="st4" points="463.02 539.36 149.31 508.21 148.52 561.19 463.02 539.36"/>
        </g>
        <g id="_x3C_Repetición_radial_x3E_10" data-name="_x3C_Repetición_radial_x3E_">
          <polygon class="st4" points="486.02 485.12 286.22 241.26 248.2 278.17 486.02 485.12"/>
        </g>
        <g id="_x3C_Repetición_radial_x3E_11" data-name="_x3C_Repetición_radial_x3E_">
          <polygon class="st4" points="540.64 463.02 571.79 149.31 518.81 148.52 540.64 463.02"/>
        </g>
        <g id="_x3C_Repetición_radial_x3E_12" data-name="_x3C_Repetición_radial_x3E_">
          <polygon class="st4" points="594.88 486.02 838.74 286.22 801.83 248.2 594.88 486.02"/>
        </g>
        <g id="_x3C_Repetición_radial_x3E_13" data-name="_x3C_Repetición_radial_x3E_">
          <polygon class="st4" points="616.98 540.64 930.69 571.79 931.48 518.81 616.98 540.64"/>
        </g>
        <g id="_x3C_Repetición_radial_x3E_14" data-name="_x3C_Repetición_radial_x3E_">
          <polygon class="st4" points="593.98 594.88 793.78 838.74 831.8 801.83 593.98 594.88"/>
        </g>
        <g id="_x3C_Repetición_radial_x3E_15" data-name="_x3C_Repetición_radial_x3E_">
          <polygon class="st4" points="539.36 616.98 508.21 930.69 561.19 931.48 539.36 616.98"/>
        </g>
      </g>
    </g>
    <circle class="st4" cx="539" cy="542" r="46"/>
  </g>
</svg>